<mxfile host="app.diagrams.net" agent="Mozilla/5.0 (Windows NT 10.0; Win64; x64) AppleWebKit/537.36 (KHTML, like Gecko) Chrome/131.0.0.0 Safari/537.36 Edg/131.0.0.0" version="25.0.3">
  <diagram name="Page-1" id="ur1uSkmWxsMUMzQ6iOkg">
    <mxGraphModel dx="1267" dy="1326" grid="1" gridSize="10" guides="1" tooltips="1" connect="1" arrows="1" fold="1" page="1" pageScale="1" pageWidth="850" pageHeight="1100" math="0" shadow="0">
      <root>
        <mxCell id="0" />
        <mxCell id="1" parent="0" />
        <mxCell id="-TFVGihJ6DY0Zl1hKDQO-1" value="" style="edgeStyle=orthogonalEdgeStyle;rounded=0;orthogonalLoop=1;jettySize=auto;html=1;" parent="1" source="-TFVGihJ6DY0Zl1hKDQO-2" target="-TFVGihJ6DY0Zl1hKDQO-4" edge="1">
          <mxGeometry relative="1" as="geometry" />
        </mxCell>
        <mxCell id="-TFVGihJ6DY0Zl1hKDQO-2" value="&lt;font data-font-src=&quot;https://fonts.googleapis.com/css?family=Sarabun&quot; face=&quot;Sarabun&quot;&gt;Start&lt;/font&gt;" style="ellipse;whiteSpace=wrap;html=1;" parent="1" vertex="1">
          <mxGeometry x="-544.0000000000001" y="-1040" width="130" height="30" as="geometry" />
        </mxCell>
        <mxCell id="-TFVGihJ6DY0Zl1hKDQO-3" value="" style="edgeStyle=orthogonalEdgeStyle;rounded=0;orthogonalLoop=1;jettySize=auto;html=1;" parent="1" source="-TFVGihJ6DY0Zl1hKDQO-4" target="-TFVGihJ6DY0Zl1hKDQO-7" edge="1">
          <mxGeometry relative="1" as="geometry" />
        </mxCell>
        <mxCell id="-TFVGihJ6DY0Zl1hKDQO-4" value="เปิดไฟล์&amp;nbsp;a15-8.txt&amp;nbsp;&lt;span style=&quot;color: rgba(0, 0, 0, 0); font-family: monospace; font-size: 0px; text-align: start; text-wrap-mode: nowrap;&quot;&gt;%3CmxGraphModel%3E%3Croot%3E%3CmxCell%20id%3D%220%22%2F%3E%3CmxCell%20id%3D%221%22%20parent%3D%220%22%2F%3E%3CmxCell%20id%3D%222%22%20value%3D%22%E0%B8%81%E0%B8%B3%E0%B8%AB%E0%B8%99%E0%B8%94%E0%B8%95%E0%B8%B1%E0%B8%A7%E0%B9%81%E0%B8%9B%E0%B8%A3%20arr%22%20style%3D%22rounded%3D0%3BwhiteSpace%3Dwrap%3Bhtml%3D1%3B%22%20vertex%3D%221%22%20parent%3D%221%22%3E%3CmxGeometry%20x%3D%22-680%22%20y%3D%22-980%22%20width%3D%22160%22%20height%3D%2240%22%20as%3D%22geometry%22%2F%3E%3C%2FmxCell%3E%3C%2Froot%3E%3C%2FmxGraphModel%3E&lt;/span&gt;" style="rounded=0;whiteSpace=wrap;html=1;" parent="1" vertex="1">
          <mxGeometry x="-560" y="-980" width="160" height="40" as="geometry" />
        </mxCell>
        <mxCell id="-TFVGihJ6DY0Zl1hKDQO-5" value="" style="edgeStyle=orthogonalEdgeStyle;rounded=0;orthogonalLoop=1;jettySize=auto;html=1;" parent="1" source="-TFVGihJ6DY0Zl1hKDQO-7" edge="1">
          <mxGeometry relative="1" as="geometry">
            <mxPoint x="-230" y="-870" as="targetPoint" />
          </mxGeometry>
        </mxCell>
        <mxCell id="-TFVGihJ6DY0Zl1hKDQO-7" value="เปิดได้หรือไม่" style="rhombus;whiteSpace=wrap;html=1;" parent="1" vertex="1">
          <mxGeometry x="-544" y="-910" width="128" height="80" as="geometry" />
        </mxCell>
        <mxCell id="-TFVGihJ6DY0Zl1hKDQO-9" value="อ่านไฟล์&amp;nbsp;&amp;nbsp;a15-8.txt&amp;nbsp;" style="rounded=0;whiteSpace=wrap;html=1;" parent="1" vertex="1">
          <mxGeometry x="-560" y="-705" width="160" height="40" as="geometry" />
        </mxCell>
        <mxCell id="-TFVGihJ6DY0Zl1hKDQO-10" value="T" style="text;html=1;align=center;verticalAlign=middle;resizable=0;points=[];autosize=1;strokeColor=none;fillColor=none;" parent="1" vertex="1">
          <mxGeometry x="-470" y="-840" width="30" height="30" as="geometry" />
        </mxCell>
        <mxCell id="-TFVGihJ6DY0Zl1hKDQO-11" value="F" style="text;html=1;align=center;verticalAlign=middle;resizable=0;points=[];autosize=1;strokeColor=none;fillColor=none;" parent="1" vertex="1">
          <mxGeometry x="-420" y="-900" width="30" height="30" as="geometry" />
        </mxCell>
        <mxCell id="-TFVGihJ6DY0Zl1hKDQO-12" value="" style="edgeStyle=orthogonalEdgeStyle;rounded=0;orthogonalLoop=1;jettySize=auto;html=1;" parent="1" edge="1">
          <mxGeometry relative="1" as="geometry">
            <mxPoint x="-480" y="-830" as="sourcePoint" />
            <mxPoint x="-480" y="-789.9999999999999" as="targetPoint" />
          </mxGeometry>
        </mxCell>
        <mxCell id="kjQXmwCL3HkyQ-aXbrh9-3" style="edgeStyle=orthogonalEdgeStyle;rounded=0;orthogonalLoop=1;jettySize=auto;html=1;entryX=0.5;entryY=0;entryDx=0;entryDy=0;" edge="1" parent="1" source="-TFVGihJ6DY0Zl1hKDQO-14" target="-TFVGihJ6DY0Zl1hKDQO-45">
          <mxGeometry relative="1" as="geometry" />
        </mxCell>
        <mxCell id="-TFVGihJ6DY0Zl1hKDQO-14" value="เอาข้อความใน&amp;nbsp;&amp;nbsp;a15-8.txt&amp;nbsp;&amp;nbsp;&lt;div&gt;ใส่ arr data&lt;span style=&quot;white-space: pre;&quot;&gt;&#x9;&lt;/span&gt;&lt;/div&gt;" style="rounded=0;whiteSpace=wrap;html=1;" parent="1" vertex="1">
          <mxGeometry x="-558" y="-540" width="160" height="40" as="geometry" />
        </mxCell>
        <mxCell id="-TFVGihJ6DY0Zl1hKDQO-22" value="" style="edgeStyle=orthogonalEdgeStyle;rounded=0;orthogonalLoop=1;jettySize=auto;html=1;" parent="1" target="-TFVGihJ6DY0Zl1hKDQO-42" edge="1">
          <mxGeometry relative="1" as="geometry">
            <mxPoint x="-478" y="-665" as="sourcePoint" />
          </mxGeometry>
        </mxCell>
        <mxCell id="-TFVGihJ6DY0Zl1hKDQO-31" value="" style="edgeStyle=orthogonalEdgeStyle;rounded=0;orthogonalLoop=1;jettySize=auto;html=1;" parent="1" target="-TFVGihJ6DY0Zl1hKDQO-40" edge="1">
          <mxGeometry relative="1" as="geometry">
            <mxPoint x="-477.73571428571427" y="-310" as="sourcePoint" />
          </mxGeometry>
        </mxCell>
        <mxCell id="-TFVGihJ6DY0Zl1hKDQO-35" value="เก็บไว้ใน stuck Birthdayint" style="rounded=0;whiteSpace=wrap;html=1;" parent="1" vertex="1">
          <mxGeometry x="-557.25" y="-165" width="160.75" height="40" as="geometry" />
        </mxCell>
        <mxCell id="-TFVGihJ6DY0Zl1hKDQO-38" value="" style="edgeStyle=orthogonalEdgeStyle;rounded=0;orthogonalLoop=1;jettySize=auto;html=1;" parent="1" source="-TFVGihJ6DY0Zl1hKDQO-40" target="-TFVGihJ6DY0Zl1hKDQO-35" edge="1">
          <mxGeometry relative="1" as="geometry" />
        </mxCell>
        <mxCell id="-TFVGihJ6DY0Zl1hKDQO-40" value="แปลงครบทุกตัวแล้วหรือไม่" style="rhombus;whiteSpace=wrap;html=1;" parent="1" vertex="1">
          <mxGeometry x="-541.25" y="-270" width="128" height="80" as="geometry" />
        </mxCell>
        <mxCell id="kjQXmwCL3HkyQ-aXbrh9-1" value="" style="edgeStyle=orthogonalEdgeStyle;rounded=0;orthogonalLoop=1;jettySize=auto;html=1;" edge="1" parent="1" source="-TFVGihJ6DY0Zl1hKDQO-42" target="-TFVGihJ6DY0Zl1hKDQO-14">
          <mxGeometry relative="1" as="geometry" />
        </mxCell>
        <mxCell id="-TFVGihJ6DY0Zl1hKDQO-42" value="" style="ellipse;whiteSpace=wrap;html=1;aspect=fixed;" parent="1" vertex="1">
          <mxGeometry x="-493.5" y="-625" width="30" height="30" as="geometry" />
        </mxCell>
        <mxCell id="-TFVGihJ6DY0Zl1hKDQO-43" value="" style="edgeStyle=orthogonalEdgeStyle;rounded=0;orthogonalLoop=1;jettySize=auto;html=1;" parent="1" source="-TFVGihJ6DY0Zl1hKDQO-44" edge="1">
          <mxGeometry relative="1" as="geometry">
            <mxPoint x="-480" y="-705" as="targetPoint" />
          </mxGeometry>
        </mxCell>
        <mxCell id="-TFVGihJ6DY0Zl1hKDQO-44" value="กำหนดตัวแปร&amp;nbsp;ASCII" style="rounded=0;whiteSpace=wrap;html=1;" parent="1" vertex="1">
          <mxGeometry x="-560" y="-785" width="160" height="40" as="geometry" />
        </mxCell>
        <mxCell id="-TFVGihJ6DY0Zl1hKDQO-49" value="" style="edgeStyle=orthogonalEdgeStyle;rounded=0;orthogonalLoop=1;jettySize=auto;html=1;" parent="1" source="-TFVGihJ6DY0Zl1hKDQO-45" target="-TFVGihJ6DY0Zl1hKDQO-46" edge="1">
          <mxGeometry relative="1" as="geometry" />
        </mxCell>
        <mxCell id="-TFVGihJ6DY0Zl1hKDQO-45" value="แปลงข้อมูลเป็น&amp;nbsp;ASCII" style="rounded=0;whiteSpace=wrap;html=1;" parent="1" vertex="1">
          <mxGeometry x="-557.25" y="-450" width="160" height="40" as="geometry" />
        </mxCell>
        <mxCell id="-TFVGihJ6DY0Zl1hKDQO-46" value="เก็บที่แปลงไว้ใน arr ASCII" style="rounded=0;whiteSpace=wrap;html=1;" parent="1" vertex="1">
          <mxGeometry x="-557.25" y="-350" width="160" height="40" as="geometry" />
        </mxCell>
        <mxCell id="kjQXmwCL3HkyQ-aXbrh9-4" style="edgeStyle=orthogonalEdgeStyle;rounded=0;orthogonalLoop=1;jettySize=auto;html=1;exitX=0.5;exitY=1;exitDx=0;exitDy=0;" edge="1" parent="1" source="-TFVGihJ6DY0Zl1hKDQO-45" target="-TFVGihJ6DY0Zl1hKDQO-45">
          <mxGeometry relative="1" as="geometry" />
        </mxCell>
        <mxCell id="kjQXmwCL3HkyQ-aXbrh9-8" value="" style="edgeStyle=orthogonalEdgeStyle;rounded=0;orthogonalLoop=1;jettySize=auto;html=1;" edge="1" parent="1" source="kjQXmwCL3HkyQ-aXbrh9-5" target="kjQXmwCL3HkyQ-aXbrh9-7">
          <mxGeometry relative="1" as="geometry" />
        </mxCell>
        <mxCell id="kjQXmwCL3HkyQ-aXbrh9-5" value="Start Mostmin" style="shape=process;whiteSpace=wrap;html=1;backgroundOutline=1;" vertex="1" parent="1">
          <mxGeometry x="50" y="-1040" width="120" height="60" as="geometry" />
        </mxCell>
        <mxCell id="kjQXmwCL3HkyQ-aXbrh9-15" style="edgeStyle=orthogonalEdgeStyle;rounded=0;orthogonalLoop=1;jettySize=auto;html=1;entryX=1;entryY=0.5;entryDx=0;entryDy=0;" edge="1" parent="1" source="kjQXmwCL3HkyQ-aXbrh9-6" target="kjQXmwCL3HkyQ-aXbrh9-16">
          <mxGeometry relative="1" as="geometry">
            <mxPoint x="289.9999999999998" y="-790" as="targetPoint" />
            <Array as="points">
              <mxPoint x="300" y="-730" />
            </Array>
          </mxGeometry>
        </mxCell>
        <mxCell id="kjQXmwCL3HkyQ-aXbrh9-6" value="เรียงจากมากไปน้อย" style="rounded=0;whiteSpace=wrap;html=1;" vertex="1" parent="1">
          <mxGeometry x="240" y="-915" width="120" height="40" as="geometry" />
        </mxCell>
        <mxCell id="kjQXmwCL3HkyQ-aXbrh9-9" value="" style="edgeStyle=orthogonalEdgeStyle;rounded=0;orthogonalLoop=1;jettySize=auto;html=1;" edge="1" parent="1" source="kjQXmwCL3HkyQ-aXbrh9-7" target="kjQXmwCL3HkyQ-aXbrh9-6">
          <mxGeometry relative="1" as="geometry" />
        </mxCell>
        <mxCell id="kjQXmwCL3HkyQ-aXbrh9-11" value="" style="edgeStyle=orthogonalEdgeStyle;rounded=0;orthogonalLoop=1;jettySize=auto;html=1;" edge="1" parent="1" source="kjQXmwCL3HkyQ-aXbrh9-7" target="kjQXmwCL3HkyQ-aXbrh9-10">
          <mxGeometry relative="1" as="geometry" />
        </mxCell>
        <mxCell id="kjQXmwCL3HkyQ-aXbrh9-7" value="เรียงจากมากไปน้อย" style="rhombus;whiteSpace=wrap;html=1;" vertex="1" parent="1">
          <mxGeometry x="50" y="-940" width="120" height="90" as="geometry" />
        </mxCell>
        <mxCell id="kjQXmwCL3HkyQ-aXbrh9-17" value="" style="edgeStyle=orthogonalEdgeStyle;rounded=0;orthogonalLoop=1;jettySize=auto;html=1;" edge="1" parent="1" source="kjQXmwCL3HkyQ-aXbrh9-10" target="kjQXmwCL3HkyQ-aXbrh9-16">
          <mxGeometry relative="1" as="geometry" />
        </mxCell>
        <mxCell id="kjQXmwCL3HkyQ-aXbrh9-10" value="เรียงจากน้อยไปมาก" style="rounded=0;whiteSpace=wrap;html=1;" vertex="1" parent="1">
          <mxGeometry x="50" y="-810" width="120" height="40" as="geometry" />
        </mxCell>
        <mxCell id="kjQXmwCL3HkyQ-aXbrh9-22" value="" style="edgeStyle=orthogonalEdgeStyle;rounded=0;orthogonalLoop=1;jettySize=auto;html=1;" edge="1" parent="1" source="kjQXmwCL3HkyQ-aXbrh9-12" target="kjQXmwCL3HkyQ-aXbrh9-21">
          <mxGeometry relative="1" as="geometry" />
        </mxCell>
        <mxCell id="kjQXmwCL3HkyQ-aXbrh9-12" value="ปริ้นเลขที่โดนเรียง" style="shape=parallelogram;perimeter=parallelogramPerimeter;whiteSpace=wrap;html=1;fixedSize=1;" vertex="1" parent="1">
          <mxGeometry x="50" y="-690" width="120" height="45" as="geometry" />
        </mxCell>
        <mxCell id="kjQXmwCL3HkyQ-aXbrh9-18" value="" style="edgeStyle=orthogonalEdgeStyle;rounded=0;orthogonalLoop=1;jettySize=auto;html=1;" edge="1" parent="1" source="kjQXmwCL3HkyQ-aXbrh9-16" target="kjQXmwCL3HkyQ-aXbrh9-12">
          <mxGeometry relative="1" as="geometry" />
        </mxCell>
        <mxCell id="kjQXmwCL3HkyQ-aXbrh9-16" value="" style="ellipse;whiteSpace=wrap;html=1;aspect=fixed;" vertex="1" parent="1">
          <mxGeometry x="95" y="-745" width="30" height="30" as="geometry" />
        </mxCell>
        <mxCell id="kjQXmwCL3HkyQ-aXbrh9-19" value="T" style="text;html=1;align=center;verticalAlign=middle;resizable=0;points=[];autosize=1;strokeColor=none;fillColor=none;" vertex="1" parent="1">
          <mxGeometry x="200" y="-930" width="30" height="30" as="geometry" />
        </mxCell>
        <mxCell id="kjQXmwCL3HkyQ-aXbrh9-20" value="F" style="text;html=1;align=center;verticalAlign=middle;resizable=0;points=[];autosize=1;strokeColor=none;fillColor=none;" vertex="1" parent="1">
          <mxGeometry x="110" y="-850" width="30" height="30" as="geometry" />
        </mxCell>
        <mxCell id="kjQXmwCL3HkyQ-aXbrh9-21" value="End Mostmin" style="shape=process;whiteSpace=wrap;html=1;backgroundOutline=1;" vertex="1" parent="1">
          <mxGeometry x="50" y="-610" width="120" height="60" as="geometry" />
        </mxCell>
      </root>
    </mxGraphModel>
  </diagram>
</mxfile>
